<?xml version="1.0" encoding="utf-8"?>
<!DOCTYPE svg PUBLIC "-//W3C//DTD SVG 1.1//EN" "http://www.w3.org/Graphics/SVG/1.1/DTD/svg11.dtd">
<svg version="1.1" id="Layer_1" xmlns="http://www.w3.org/2000/svg" xmlns:xlink="http://www.w3.org/1999/xlink" x="0px" y="0px"
	 width="612px" height="612px" viewBox="0 0 612 612" enable-background="new 0 0 612 612" xml:space="preserve">
<g>
	<path fill="#FFFFFF" d="M308.04,615.041c-98.94,0-197.88,0-296.82,0c-2.38,0-4.772-0.149-7.136,0.05
		c-1.777,0.147-2.266-0.316-2.09-2.094c0.199-2.021,0.046-4.076,0.046-6.116c0-198.56,0-397.121,0-595.68
		c0-2.04,0.153-4.096-0.046-6.116C1.818,3.308,2.307,2.82,4.085,2.995C6.105,3.194,8.16,3.041,10.2,3.041
		c198.56,0,397.119,0,595.68,0c2.04,0,4.095,0.153,6.115-0.046c1.778-0.175,2.267,0.313,2.091,2.09
		c-0.199,2.02-0.046,4.076-0.046,6.116c0,198.559,0,397.12,0,595.68c0,2.04-0.153,4.096,0.046,6.116
		c0.176,1.777-0.312,2.241-2.09,2.094c-2.364-0.199-4.757-0.05-7.136-0.05C505.92,615.041,406.98,615.041,308.04,615.041z"/>
	<path fill-rule="evenodd" clip-rule="evenodd" d="M465.12,280.643c-1.936,8.146-5.611,15.577-6.415,23.906
		c-0.599,6.211-3.836,12.132-3.889,18.71c-0.019,2.469-1.919,4.12-4.678,4.138c-2.377,0.019-4.755-0.033-7.131,0.017
		c-1.638,0.036-2.292-0.626-2.403-2.315c-0.384-5.77-3.002-11.103-3.818-16.681c-0.846-5.771-1.415-11.433-4.197-16.66
		c-0.283-0.532,0.023-1.347-0.128-1.984c-0.543-2.287,1.338-5.048-1.341-6.913c-1.385,2.169-0.619,4.572-0.639,6.849
		c-0.092,11.206-0.123,22.412,0.016,33.616c0.034,2.827-0.305,4.634-3.713,4.1c-0.994-0.155-2.043-0.109-3.051-0.006
		c-2.436,0.249-3.666-0.349-3.562-3.237c0.222-6.104,0.068-12.222,0.068-18.334c0-12.903,0.037-25.807-0.038-38.708
		c-0.012-2.076,0.474-3.162,2.753-3.002c1.689,0.12,3.396-0.032,5.092,0.036c2.653,0.107,6.159-0.675,7.733,0.708
		c1.825,1.604,2.202,5.088,2.776,7.847c2.149,10.335,3.815,20.786,6.327,31.03c0.905,3.691,1.626,7.438,2.608,11.116
		c1.116-3.761,2.469-7.469,3.302-11.292c2.177-9.991,4.061-20.045,6.206-30.044c0.659-3.072,1.038-6.737,2.964-8.815
		c1.289-1.389,5.082-0.472,7.755-0.554c1.357-0.042,2.725,0.083,4.073-0.028c2.385-0.199,3.617,0.267,3.597,3.204
		c-0.135,19.013-0.095,38.029-0.032,57.044c0.008,2.05-0.411,3.21-2.717,3.032c-1.35-0.105-2.727-0.134-4.07,0.004
		c-2.51,0.257-3.551-0.482-3.514-3.287c0.154-11.543,0.064-23.089,0.064-34.634C465.12,286.549,465.12,283.597,465.12,280.643z"/>
	<path fill-rule="evenodd" clip-rule="evenodd" d="M326.4,304.798c0-11.868-0.023-23.647,0.01-35.427
		c0.015-5.51,0.255-5.558,5.562-5.273c2.371,0.127,2.624,1.208,2.618,3.162c-0.052,19.005-0.102,38.011,0.042,57.015
		c0.022,3.028-1.357,3.136-3.65,3.169c-6.08,0.086-7.212-0.19-8.573-5.414c-2.163-8.304-6.593-15.613-9.553-23.544
		c-0.986-2.64-3.415-4.787-2.829-8.024c0.089-0.49-0.652-1.62-0.795-1.586c-1.083,0.267-1.207,1.175-1.205,2.184
		c0.021,10.859-0.113,21.723,0.09,32.578c0.06,3.239-1.084,4.188-4.042,3.787c-0.999-0.136-2.052-0.149-3.048,0.002
		c-2.937,0.446-3.239-1.163-3.224-3.546c0.078-12.896,0.037-25.793,0.037-38.688c0-4.751-0.02-9.502,0.005-14.254
		c0.036-7.226,0.046-7.158,7.055-6.819c1.887,0.09,2.324,0.755,3.311,2.492c6.549,11.537,10.641,24.129,16.092,36.125
		C324.663,303.526,324.451,304.529,326.4,304.798z"/>
	<path fill-rule="evenodd" clip-rule="evenodd" d="M395.76,292.743c0,8.148,0.074,16.298-0.028,24.445
		c-0.058,4.596-5.616,10.084-10.239,10.189c-4.75,0.107-9.507,0.062-14.259,0.01c-2.602-0.029-5.2,0.588-7.33-2.105
		c-2.238-2.831-4.773-5.502-4.807-9.224c-0.135-15.617-0.113-31.236-0.012-46.853c0.021-3.435,2.089-4.975,5.872-5.044
		c4.307-0.08,6.213,1.446,6.282,5.656c0.139,8.485,0.041,16.975,0.041,25.464c0,6.11-0.125,12.226,0.042,18.333
		c0.12,4.475,1.885,5.688,7.328,5.628c5.235-0.058,6.852-1.337,6.88-6.089c0.083-14.598,0.012-29.197,0.04-43.798
		c0.01-5.247,0.06-5.245,5.579-5.193c0.679,0.006,1.362,0.052,2.037-0.01c2.41-0.217,2.62,1.193,2.604,3.128
		C395.719,275.766,395.76,284.254,395.76,292.743z"/>
	<path fill-rule="evenodd" clip-rule="evenodd" d="M134.64,295.195c0-8.477-0.027-16.952,0.009-25.426
		c0.024-5.541,0.064-5.572,5.151-5.6c6.441-0.034,12.946,0.556,19.304-0.171c5.955-0.681,8.174,3.666,11.584,6.622
		c1.274,1.104,0.621,2.534,0.637,3.793c0.078,6.102,0.065,12.204,0.02,18.306c-0.019,2.596,0.604,5.196-2.063,7.332
		c-2.813,2.253-5.517,4.418-9.189,4.891c-1,0.129-2.039-0.06-3.047,0.034c-3.961,0.371-9.358-1.911-11.513,0.998
		c-1.961,2.648-0.602,7.761-0.688,11.79c-0.03,1.354,0.015,2.712-0.008,4.066c-0.105,6.022,1.313,5.452-6.208,5.634
		c-2.918,0.069-4.143-0.512-4.066-3.793C134.782,314.183,134.64,304.686,134.64,295.195z"/>
	<path fill-rule="evenodd" clip-rule="evenodd" d="M242.76,296.586c0-8.826-0.077-17.655,0.033-26.48
		c0.054-4.367,1.588-5.857,6-5.915c7.807-0.104,15.625,0.169,23.423-0.112c4.112-0.147,3.034,2.462,3.189,4.628
		c0.162,2.25-0.003,4.068-3.105,3.654c-1.667-0.223-3.4-0.157-5.085-0.016c-3.969,0.335-8.034-0.94-11.923,0.704
		c-0.097,5.393-0.255,10.784-0.238,16.176c0.003,1.018,0.944,1.51,2.143,1.486c3.733-0.08,7.478-0.189,11.201,0.014
		c3.962,0.215,6.743,5.417,4.93,8.993c-0.256,0.504-0.917,1.014-1.465,1.113c-0.986,0.179-2.028,0.03-3.046,0.054
		c-4.37,0.096-8.741,0.206-13.111,0.311c-1.436,4.594-0.292,9.324-0.732,13.965c-0.268,2.829,0.253,4.404,3.681,4.149
		c4.052-0.299,8.143-0.111,12.217-0.058c4.867,0.063,4.748,0.094,4.586,5.226c-0.066,2.1-0.588,2.98-2.822,2.958
		c-8.826-0.087-17.655-0.121-26.48,0.017c-2.589,0.041-3.502-0.649-3.456-3.367C242.858,314.922,242.76,305.754,242.76,296.586z"/>
	<path fill-rule="evenodd" clip-rule="evenodd" d="M193.8,295.321c0-9.154,0.151-18.312-0.08-27.458
		c-0.083-3.329,1.218-3.825,4.099-3.761c7.584,0.166,6.134-0.345,6.162,5.662c0.062,13.222,0.019,26.444,0.019,39.665
		c0,2.372,0.098,4.751-0.028,7.118c-0.122,2.289,0.952,2.799,3.018,2.733c4.064-0.128,8.152,0.194,12.198-0.104
		c4.117-0.303,3.021,2.457,3.176,4.616c0.163,2.245-0.001,3.783-3.097,3.686c-7.451-0.233-14.919-0.233-22.37,0
		c-3.086,0.096-3.139-1.427-3.124-3.68C193.836,314.305,193.8,304.812,193.8,295.321z"/>
	<path fill-rule="evenodd" clip-rule="evenodd" fill="#FFFFFF" d="M144.84,283.354c0-0.334,0-0.671,0-1.008
		c0.001-10.85,0.001-10.85,10.739-10.025c3.633,0.279,5.433,1.833,5.543,5.288c0.151,4.701,0.022,9.411,0.043,14.117
		c0.015,3.233-1.967,4.578-4.792,5.05c-0.981,0.164-2.012,0.02-3.02,0.028c-7.952,0.062-8.421-0.396-8.51-8.407
		C144.824,286.716,144.84,285.035,144.84,283.354z"/>
</g>
</svg>
