<?xml version="1.0" encoding="utf-8"?>
<!-- Generator: Adobe Illustrator 21.1.0, SVG Export Plug-In . SVG Version: 6.00 Build 0)  -->
<svg version="1.1" id="Layer_1" xmlns="http://www.w3.org/2000/svg" xmlns:xlink="http://www.w3.org/1999/xlink" x="0px" y="0px"
	 viewBox="0 0 66 90" style="enable-background:new 0 0 66 90;" xml:space="preserve">
<path d="M37.4,63.8c-1,0.8-2.2,1.2-3.5,1.2c-1.1,0-2-0.5-2.7-1.4s-1-2-1-3.3V41.4c0-0.8-0.3-1.2-0.9-1.2c-0.8,0-2.1,0.7-3.8,2.2
	c0.2-0.8,1.1-1.9,2.6-3.3c1.5-1.4,3-2.1,4.3-2.1s2.2,0.5,2.8,1.5c0.5,1,0.8,2.2,0.8,3.7v18c0.2,1.2,0.6,1.8,1.3,1.8
	c0.5,0,1.1-0.3,1.8-0.8c0.7-0.6,1.1-0.9,1.3-1.1C39.5,61.7,38.4,63,37.4,63.8z M33,25c-2.5,0-4.5,2-4.5,4.5s2,4.5,4.5,4.5
	s4.5-2,4.5-4.5S35.5,25,33,25z M66,15.8V90H0V0h50.2L66,15.8z M61,19.8H47.2V5H5v80h56V19.8z M52.2,8.9v5.9h5.5L52.2,8.9z"/>
</svg>
