<?xml version="1.0" encoding="utf-8"?>
<!-- Generator: Adobe Illustrator 16.0.4, SVG Export Plug-In . SVG Version: 6.00 Build 0)  -->
<!DOCTYPE svg PUBLIC "-//W3C//DTD SVG 1.1//EN" "http://www.w3.org/Graphics/SVG/1.1/DTD/svg11.dtd">
<svg version="1.1" id="Layer_1" xmlns="http://www.w3.org/2000/svg" xmlns:xlink="http://www.w3.org/1999/xlink" x="0px" y="0px"
	 width="295.021px" height="169.362px" viewBox="0 0 295.021 169.362" enable-background="new 0 0 295.021 169.362"
	 xml:space="preserve">
<g>
	<path fill="#231F20" d="M36.721,64.373c-2.127-1.165-4.151-2.912-5.325-4.733c0,0,0.474-1.456,2.009-2.111
		c1.462-0.655,3.231-0.364,3.231-0.364l4.539,5.898c5.826,0,4.336-7.5,2.692-14.127L32.877,5.024l-5.621-1.384l-0.635-2.403h17.042
		l0.612,2.331l-5.109,1.311h-0.073l11.245,45.367c1.361,5.534,1.663,10.049-0.958,12.743c-1.837,1.967-3.691,2.986-6.24,2.986
		C40.81,65.976,38.774,65.538,36.721,64.373z"/>
	<path fill="#231F20" d="M53.452,52.212l-0.609-2.548l4.064-1.166l3.58-47.261h5.754l27.517,47.479l-0.071-0.219l4.311,1.166
		l0.683,2.548H82.293l-0.683-2.548l5.157-1.166l-8.512-15.438H62.451l-0.883,15.438l6.569,1.166l0.683,2.548H53.452z M62.649,29.638
		h13.692L64.027,7.427L62.649,29.638z"/>
	<path fill="#231F20" d="M88.685,28.182C83.053,10.85,91.472,0,105.601,0c4.151,0,8.825,1.383,12.523,3.349l1.135-2.111
		c0,0,0.606,0.073,1.21,0.364s1.087,0.655,1.087,0.655l1.489,4.806l2.917,10.996l-2.649,0.364l-6.129-10.122
		c-1.848-2.548-8.065-5.097-11.343-5.097c-10.196,0-14.425,9.175-9.078,25.633c4.307,13.254,11.649,20.608,21.918,20.608
		c3.132,0,6.815-2.112,7.828-4.151l0.646-10.34l2.545,0.437l2.206,11.942c-2.288,3.495-7.235,5.753-13.425,5.753
		C105.589,53.086,94.174,45.075,88.685,28.182z"/>
	<path fill="#231F20" d="M136.098,4.879l5.851,22.938l12.939-22.938l-5.234-1.093l-0.683-2.549h14.493l0.683,2.549l-4.016,1.093
		L148.59,23.375l23.045,24.978l4.941,1.312l0.537,2.548h-16.605l-0.536-2.548l4.16-1.093l0.097,0.072l-17.903-21.7l-3.272,5.17
		l4.182,16.458l4.798,1.093l0.536,2.548h-16.313l-0.612-2.33l5.183-1.311L129.907,4.879l-5.014-1.311l-0.612-2.331h16.095
		l0.612,2.331l-4.818,1.311H136.098z"/>
	<path fill="#231F20" d="M198.87,16.967l-2.261,0.438l-5.631-8.812c-2.617-3.351-6.195-5.171-9.982-5.171
		c-4.807,0-7.942,3.351-6.191,8.739c0.898,2.767,3.819,4.806,12.715,9.321c9.597,4.879,14.418,8.957,17.209,17.549
		c1.538,4.733,0.371,7.864-1.273,9.977c-2.16,2.768-5.739,4.078-10.619,4.078c-3.35,0-7.539-1.238-11.26-3.496l-1.112,2.404
		c0,0-0.533-0.073-1.138-0.364c-0.581-0.219-1.184-0.729-1.184-0.729l-1.412-5.243l-2.635-9.903l2.261-0.437l5.985,9.903
		c2.332,2.694,7.173,4.368,10.014,4.368c2.913,0,4.889-1.092,5.876-2.984c0.912-1.676,1.317-3.568,0.395-6.409
		c-1.681-5.17-5.606-8.738-13.028-12.525c-10.637-5.389-15.146-8.957-17.086-14.928C165.743,4.223,171.8,0,180.394,0
		c4.225,0,7.831,1.237,10.897,3.276l0.771-2.33c0,0,0.606,0.072,1.211,0.364c0.604,0.291,1.087,0.655,1.087,0.655l1.845,5.898
		L198.87,16.967z"/>
	<path fill="#231F20" d="M204.339,27.525C199.467,12.306,204.937,0,219.283,0c11.799,0,22.455,5.898,28.086,23.229
		c5.561,17.113-0.713,29.856-14.77,29.856C222.695,53.086,210.515,46.532,204.339,27.525z M239.729,22.355
		c-4.188-12.889-11.32-19.151-20.206-19.151c-8.448,0-12.383,8.737-6.94,25.487c5.253,16.166,12.425,20.754,20.218,20.754
		C244.016,49.445,243.444,33.788,239.729,22.355z"/>
	<path fill="#231F20" d="M291.452,52.212L252.417,6.043l11.633,42.528l5.453,1.093l0.683,2.548h-15.148l-0.683-2.548l5.204-1.021
		L248.102,5.315l-5.521-1.529l-0.683-2.549h13.327l33.286,39.906l-9.962-36.265l-5.891-1.093l-0.682-2.549h14.857l0.682,2.549
		l-4.67,1.093l12.175,47.333H291.452z"/>
</g>
<g>
	<path fill="#231F20" d="M5.738,63.931l-4.679-1.312l-0.018-2.33h16.896c7.064,0,15.593,2.185,16.341,12.89
		c0.494,7.063-2.981,10.486-7.836,11.869c5.064,1.603,9.553,5.389,10.083,12.962c0.738,10.56-6.575,13.254-14.513,13.254H0.018
		L0,108.934l5.517-1.311L5.738,63.931z M11.863,86.941l-0.032,21.409h9.25c5.608,0,9.44-2.476,8.911-10.049
		c-0.504-7.21-4.77-10.924-9.315-11.36H11.863z M11.946,63.129l-0.068,20.899l7.413-0.219c4.875-0.071,8.655-2.257,8.53-9.248
		c-0.15-7.354-4.114-10.923-9.32-11.433H11.946z"/>
	<path fill="#231F20" d="M35.12,111.264l0.04-2.549l4.361-1.165l15.631-47.261h5.754l15.41,47.479L76.3,107.55l4.014,1.165
		l0.033,2.549H63.96l-0.033-2.549l5.454-1.165l-4.576-15.438H49.002l-4.82,15.438l6.272,1.165l0.033,2.549H35.12z M50.073,88.688
		h13.692l-6.651-22.209L50.073,88.688z"/>
	<path fill="#231F20" d="M92.984,63.931l0.001,22.938l18.789-22.938l-4.956-1.093l-0.032-2.549h14.493l0.033,2.549l-4.294,1.093
		L100.76,82.427l16.677,24.978l4.607,1.311l-0.113,2.549h-16.605l0.113-2.549l4.438-1.092l0.078,0.072l-12.369-21.7l-4.59,5.17
		l-0.015,16.458l4.52,1.092l-0.113,2.549H81.073l-0.018-2.33l5.516-1.311l0.222-43.692l-4.679-1.312l-0.018-2.33h16.095l0.018,2.33
		l-5.152,1.312H92.984z"/>
	<path fill="#231F20" d="M147.959,95.025l-1.232-7.21l-12.048-0.438l-0.12,21.191l19.743-0.946l2.448-8.738l2.434,0.437
		l-0.33,11.942h-36.196l-0.018-2.33l5.517-1.311l0.222-43.692l-4.679-1.312l-0.018-2.33h31.026l1.99,11.798l-2.373,0.437
		l-3.67-8.739l-15.943-0.946l-0.08,21.772l11.84-0.437l0.978-6.844h2.84l-0.001,17.695H147.959z"/>
	<path fill="#231F20" d="M166.757,63.931l-4.679-1.312l-0.018-2.33h17.333c8.521,0,15.674,3.35,16.315,12.525
		c0.637,9.103-5.07,12.89-12.012,13.617c3.007,0.291,6.703,2.111,8.412,6.772l5.155,14.346l4.534,1.311l-0.124,2.403h-10.487
		l-5.915-20.025c-0.668-2.257-3.866-3.204-6.857-3.277l-5.468-0.073l-0.003,19.735l5.611,1.092l-0.113,2.549h-17.406l-0.018-2.33
		l5.517-1.311L166.757,63.931z M172.965,63.129l-0.096,21.555c1.894,0,5.744-0.145,7.924-0.218
		c4.874-0.073,8.583-3.277,8.458-10.269c-0.124-6.99-3.719-10.485-9.295-11.068H172.965z"/>
</g>
<g>
	<path fill="#231F20" d="M34.659,122.023l-4.263-1.311l0.727-2.331h17.334c8.521,0,14.605,3.351,12.317,12.527
		c-2.27,9.104-9.187,12.89-16.359,13.619c2.913,0.29,6.028,2.111,6.25,6.772l0.574,14.348l4.115,1.311l-0.89,2.403H43.976
		l0.479-20.027c0.052-2.258-2.843-3.205-5.811-3.277l-5.444-0.073l-6.305,19.736l5.262,1.093l-0.927,2.549H13.825l0.727-2.331
		l5.935-1.311L34.659,122.023z M41.121,121.223l-6.976,21.557c1.894,0,5.789-0.145,7.993-0.218
		c4.897-0.072,9.63-3.277,11.737-10.269c2.106-6.992-0.372-10.487-5.762-11.07H41.121z"/>
	<path fill="#231F20" d="M67.096,165.721l6.161-18.28l-5.225-25.489l-4.407-1.02l0.781-2.55h17.188l-0.854,2.55l-5.371,1.092
		l3.547,20.829l-0.055,0.219l17.046-21.048l-5.918-1.092l0.781-2.55h16.315l-0.782,2.55l-4.843,1.02l-22.195,25.636l-5.905,18.134
		l4.262,1.311l-0.727,2.331H61.236l0.727-2.331L67.096,165.721z"/>
	<path fill="#231F20" d="M82.5,169.362l0.854-2.549l4.733-1.165l30.721-47.267h5.754l0.25,47.485l0.055-0.219l3.643,1.165
		l-0.781,2.549h-16.387l0.781-2.549l5.825-1.165l0.354-15.439h-15.804l-9.749,15.439l5.9,1.165l-0.781,2.549H82.5z M104.661,146.786
		h13.692l0.439-22.214L104.661,146.786z"/>
	<path fill="#231F20" d="M164.94,169.362l-12.521-46.173l-12.789,42.531l4.826,1.093l-0.781,2.549h-15.148l0.781-2.549l5.789-1.02
		l13.426-43.333l-4.645-1.529l0.781-2.55h13.328l10.369,39.91l10.863-36.269l-5.262-1.092l0.781-2.55h14.857l-0.783,2.55
		l-5.296,1.092l-15.009,47.339H164.94z"/>
</g>
</svg>
