<svg version="1.1" id="Layer_1" xmlns="http://www.w3.org/2000/svg" xmlns:xlink="http://www.w3.org/1999/xlink" x="0px" y="0px"
	 width="351.808px" height="12.906px" viewBox="0 0 351.808 12.906" enable-background="new 0 0 351.808 12.906"
	 xml:space="preserve">
<g>
	<path d="M6.192,9.63c0,1.032-0.33,1.83-0.99,2.394c-0.66,0.564-1.53,0.846-2.61,0.846c-0.984,0-1.848-0.18-2.592-0.54l0.54-0.756
		c0.252,0.144,0.549,0.252,0.891,0.324c0.342,0.072,0.687,0.108,1.035,0.108c0.936,0,1.638-0.219,2.106-0.657
		c0.468-0.438,0.702-1.131,0.702-2.079V0.954H0.702V0.108h5.49V9.63z"/>
	<path d="M10.582,11.511c-0.75-0.93-1.125-2.619-1.125-5.067c0-2.436,0.375-4.119,1.125-5.049C11.332,0.465,12.361,0,13.669,0
		c1.296,0,2.319,0.465,3.069,1.395c0.75,0.93,1.125,2.613,1.125,5.049c0,2.448-0.375,4.137-1.125,5.067
		c-0.75,0.93-1.773,1.395-3.069,1.395C12.361,12.906,11.332,12.441,10.582,11.511z M15.352,11.574
		c0.462-0.312,0.828-0.879,1.098-1.701c0.27-0.822,0.405-1.965,0.405-3.429c0-1.464-0.135-2.604-0.405-3.42
		c-0.27-0.816-0.636-1.38-1.098-1.692s-1.023-0.468-1.683-0.468c-0.66,0-1.224,0.156-1.692,0.468
		c-0.468,0.312-0.837,0.876-1.107,1.692c-0.27,0.816-0.405,1.956-0.405,3.42c0,1.464,0.135,2.607,0.405,3.429
		c0.27,0.822,0.639,1.389,1.107,1.701c0.468,0.312,1.032,0.468,1.692,0.468C14.329,12.042,14.89,11.886,15.352,11.574z"/>
	<path d="M22.277,12.429c-0.558-0.318-0.984-0.861-1.278-1.629c-0.294-0.768-0.441-1.824-0.441-3.168V0.108h0.918v7.704
		c0,1.08,0.108,1.929,0.324,2.547c0.216,0.618,0.537,1.053,0.963,1.305c0.426,0.252,0.975,0.378,1.647,0.378
		c0.684,0,1.236-0.126,1.656-0.378c0.42-0.252,0.735-0.687,0.945-1.305c0.21-0.618,0.315-1.467,0.315-2.547V0.108h0.918v7.524
		c0,1.344-0.144,2.4-0.432,3.168c-0.288,0.768-0.708,1.312-1.26,1.629c-0.552,0.317-1.266,0.477-2.142,0.477
		C23.546,12.906,22.834,12.747,22.277,12.429z"/>
	<path d="M36.354,7.056l2.376,5.652h-1.026L35.4,7.11h-2.97v5.598h-0.918v-12.6h3.852c0.636,0,1.2,0.078,1.692,0.234
		c0.492,0.156,0.906,0.486,1.242,0.99s0.504,1.236,0.504,2.196C38.802,5.628,37.986,6.804,36.354,7.056z M32.43,6.264h3.474
		c0.636,0,1.125-0.207,1.467-0.621c0.342-0.414,0.513-1.119,0.513-2.115c0-0.936-0.183-1.599-0.549-1.989
		c-0.366-0.39-0.873-0.585-1.521-0.585H32.43V6.264z"/>
	<path d="M48.86,0.108v12.6h-1.224L42.614,1.512v11.196h-0.918v-12.6h1.224l5.022,11.196V0.108H48.86z"/>
	<path d="M58.028,8.532h-4.644l-0.936,4.176h-0.954l2.826-12.6h2.772l2.826,12.6h-0.954L58.028,8.532z M57.83,7.686l-1.494-6.732
		h-1.26l-1.494,6.732H57.83z"/>
	<path d="M70.078,11.862v0.846H63.13v-12.6h0.918v11.754H70.078z"/>
	<path d="M84.037,11.511c-0.75-0.93-1.125-2.619-1.125-5.067c0-2.436,0.375-4.119,1.125-5.049C84.787,0.465,85.816,0,87.124,0
		c1.296,0,2.319,0.465,3.069,1.395c0.75,0.93,1.125,2.613,1.125,5.049c0,2.448-0.375,4.137-1.125,5.067
		c-0.75,0.93-1.773,1.395-3.069,1.395C85.816,12.906,84.787,12.441,84.037,11.511z M88.807,11.574
		c0.462-0.312,0.828-0.879,1.098-1.701c0.27-0.822,0.405-1.965,0.405-3.429c0-1.464-0.135-2.604-0.405-3.42
		c-0.27-0.816-0.636-1.38-1.098-1.692s-1.023-0.468-1.683-0.468c-0.66,0-1.224,0.156-1.692,0.468
		c-0.468,0.312-0.837,0.876-1.107,1.692c-0.27,0.816-0.405,1.956-0.405,3.42c0,1.464,0.135,2.607,0.405,3.429
		c0.27,0.822,0.639,1.389,1.107,1.701c0.468,0.312,1.032,0.468,1.692,0.468C87.784,12.042,88.345,11.886,88.807,11.574z"/>
	<path d="M95.501,0.954v5.148h5.31V6.93h-5.31v5.778h-0.918v-12.6h6.948v0.846H95.501z"/>
	<path d="M116.858,12.429c-0.558-0.318-0.984-0.861-1.278-1.629c-0.294-0.768-0.441-1.824-0.441-3.168V0.108h0.918v7.704
		c0,1.08,0.108,1.929,0.324,2.547c0.216,0.618,0.537,1.053,0.963,1.305c0.426,0.252,0.975,0.378,1.647,0.378
		c0.684,0,1.236-0.126,1.656-0.378c0.42-0.252,0.735-0.687,0.945-1.305c0.21-0.618,0.315-1.467,0.315-2.547V0.108h0.918v7.524
		c0,1.344-0.144,2.4-0.432,3.168c-0.288,0.768-0.708,1.312-1.26,1.629c-0.552,0.317-1.266,0.477-2.142,0.477
		C118.127,12.906,117.416,12.747,116.858,12.429z"/>
	<path d="M133.158,0.108v12.6h-1.224l-5.022-11.196v11.196h-0.918v-12.6h1.224l5.022,11.196V0.108H133.158z"/>
	<path d="M141.748,0.423c0.612,0.21,1.155,0.777,1.629,1.701c0.474,0.924,0.711,2.352,0.711,4.284s-0.237,3.36-0.711,4.284
		c-0.474,0.924-1.017,1.491-1.629,1.701c-0.612,0.21-1.35,0.315-2.214,0.315h-2.862v-12.6h2.862
		C140.397,0.108,141.135,0.213,141.748,0.423z M141.711,11.376c0.468-0.324,0.819-0.885,1.053-1.683
		c0.234-0.798,0.351-1.893,0.351-3.285s-0.117-2.487-0.351-3.285c-0.234-0.798-0.585-1.359-1.053-1.683
		c-0.468-0.324-1.074-0.486-1.818-0.486h-2.304v10.908h2.304C140.637,11.862,141.244,11.7,141.711,11.376z"/>
	<path d="M147.966,0.954v5.148h5.058V6.93h-5.058v4.932h6.03v0.846h-6.948v-12.6h6.948v0.846H147.966z"/>
	<path d="M161.855,7.056l2.376,5.652h-1.026l-2.304-5.598h-2.97v5.598h-0.918v-12.6h3.852c0.636,0,1.2,0.078,1.692,0.234
		c0.492,0.156,0.906,0.486,1.242,0.99s0.504,1.236,0.504,2.196C164.303,5.628,163.487,6.804,161.855,7.056z M157.931,6.264h3.474
		c0.636,0,1.125-0.207,1.467-0.621c0.342-0.414,0.513-1.119,0.513-2.115c0-0.936-0.183-1.599-0.549-1.989
		c-0.366-0.39-0.873-0.585-1.521-0.585h-3.384V6.264z"/>
	<path d="M174.984,11.07c-0.348,0.504-0.852,0.936-1.512,1.296c-0.66,0.36-1.488,0.54-2.484,0.54c-1.392,0-2.439-0.51-3.141-1.53
		c-0.702-1.02-1.053-2.664-1.053-4.932c0-2.244,0.381-3.879,1.143-4.905C168.699,0.513,169.788,0,171.204,0
		c0.84,0,1.536,0.168,2.088,0.504c0.552,0.336,1.014,0.852,1.386,1.548l-0.864,0.45c-0.288-0.576-0.63-0.993-1.026-1.251
		c-0.396-0.258-0.924-0.387-1.584-0.387c-2.292,0-3.438,1.86-3.438,5.58c0,1.956,0.27,3.378,0.81,4.266
		c0.54,0.888,1.344,1.332,2.412,1.332c1.416,0,2.442-0.45,3.078-1.35V6.75h-2.826V5.904h3.744V11.07z"/>
	<path d="M182.839,7.056l2.376,5.652h-1.026l-2.304-5.598h-2.97v5.598h-0.918v-12.6h3.852c0.636,0,1.2,0.078,1.692,0.234
		c0.492,0.156,0.906,0.486,1.242,0.99s0.504,1.236,0.504,2.196C185.287,5.628,184.471,6.804,182.839,7.056z M178.915,6.264h3.474
		c0.636,0,1.125-0.207,1.467-0.621c0.342-0.414,0.513-1.119,0.513-2.115c0-0.936-0.183-1.599-0.549-1.989
		c-0.366-0.39-0.873-0.585-1.521-0.585h-3.384V6.264z"/>
	<path d="M194.258,8.532h-4.644l-0.936,4.176h-0.954l2.826-12.6h2.772l2.826,12.6h-0.954L194.258,8.532z M194.06,7.686l-1.494-6.732
		h-1.26l-1.494,6.732H194.06z"/>
	<path d="M204.08,0.423c0.612,0.21,1.155,0.777,1.629,1.701c0.475,0.924,0.711,2.352,0.711,4.284s-0.236,3.36-0.711,4.284
		c-0.474,0.924-1.017,1.491-1.629,1.701c-0.611,0.21-1.35,0.315-2.213,0.315h-2.862v-12.6h2.862
		C202.73,0.108,203.469,0.213,204.08,0.423z M204.045,11.376c0.468-0.324,0.818-0.885,1.053-1.683
		c0.234-0.798,0.351-1.893,0.351-3.285s-0.116-2.487-0.351-3.285c-0.234-0.798-0.585-1.359-1.053-1.683
		c-0.469-0.324-1.074-0.486-1.818-0.486h-2.304v10.908h2.304C202.971,11.862,203.576,11.7,204.045,11.376z"/>
	<path d="M210.771,12.429c-0.559-0.318-0.984-0.861-1.279-1.629c-0.293-0.768-0.44-1.824-0.44-3.168V0.108h0.918v7.704
		c0,1.08,0.108,1.929,0.324,2.547c0.216,0.618,0.536,1.053,0.963,1.305c0.426,0.252,0.975,0.378,1.647,0.378
		c0.684,0,1.235-0.126,1.656-0.378c0.42-0.252,0.734-0.687,0.944-1.305c0.21-0.618,0.315-1.467,0.315-2.547V0.108h0.918v7.524
		c0,1.344-0.145,2.4-0.433,3.168c-0.288,0.768-0.708,1.312-1.26,1.629c-0.552,0.317-1.267,0.477-2.142,0.477
		C212.04,12.906,211.328,12.747,210.771,12.429z"/>
	<path d="M225.432,8.532h-4.645l-0.936,4.176h-0.954l2.826-12.6h2.772l2.825,12.6h-0.954L225.432,8.532z M225.233,7.686
		l-1.494-6.732h-1.26l-1.494,6.732H225.233z"/>
	<path d="M236.633,0.954h-3.672v11.754h-0.918V0.954h-3.654V0.108h8.244V0.954z"/>
	<path d="M240.398,0.954v5.148h5.059V6.93h-5.059v4.932h6.029v0.846h-6.947v-12.6h6.947v0.846H240.398z"/>
	<path d="M268.479,11.07c-0.349,0.504-0.853,0.936-1.513,1.296c-0.659,0.36-1.487,0.54-2.483,0.54c-1.393,0-2.439-0.51-3.142-1.53
		s-1.053-2.664-1.053-4.932c0-2.244,0.381-3.879,1.144-4.905C262.193,0.513,263.281,0,264.698,0c0.84,0,1.536,0.168,2.088,0.504
		c0.552,0.336,1.014,0.852,1.386,1.548l-0.863,0.45c-0.289-0.576-0.631-0.993-1.026-1.251c-0.396-0.258-0.925-0.387-1.584-0.387
		c-2.292,0-3.438,1.86-3.438,5.58c0,1.956,0.271,3.378,0.811,4.266c0.539,0.888,1.344,1.332,2.412,1.332
		c1.416,0,2.441-0.45,3.078-1.35V6.75h-2.826V5.904h3.744V11.07z"/>
	<path d="M272.453,0.954v5.148h5.059V6.93h-5.059v4.932h6.03v0.846h-6.948v-12.6h6.948v0.846H272.453z"/>
	<path d="M281.699,11.511c-0.75-0.93-1.125-2.619-1.125-5.067c0-2.436,0.375-4.119,1.125-5.049c0.75-0.93,1.779-1.395,3.087-1.395
		c1.296,0,2.319,0.465,3.069,1.395c0.75,0.93,1.125,2.613,1.125,5.049c0,2.448-0.375,4.137-1.125,5.067
		c-0.75,0.93-1.773,1.395-3.069,1.395C283.479,12.906,282.449,12.441,281.699,11.511z M286.469,11.574
		c0.462-0.312,0.828-0.879,1.098-1.701c0.271-0.822,0.406-1.965,0.406-3.429c0-1.464-0.136-2.604-0.406-3.42
		c-0.27-0.816-0.636-1.38-1.098-1.692s-1.023-0.468-1.683-0.468c-0.66,0-1.224,0.156-1.692,0.468
		c-0.468,0.312-0.837,0.876-1.107,1.692c-0.27,0.816-0.404,1.956-0.404,3.42c0,1.464,0.135,2.607,0.404,3.429
		c0.271,0.822,0.64,1.389,1.107,1.701c0.469,0.312,1.032,0.468,1.692,0.468C285.445,12.042,286.007,11.886,286.469,11.574z"/>
	<path d="M299.616,11.07c-0.349,0.504-0.853,0.936-1.513,1.296c-0.66,0.36-1.488,0.54-2.483,0.54c-1.393,0-2.439-0.51-3.142-1.53
		s-1.053-2.664-1.053-4.932c0-2.244,0.381-3.879,1.143-4.905C293.331,0.513,294.42,0,295.836,0c0.84,0,1.536,0.168,2.088,0.504
		c0.552,0.336,1.014,0.852,1.386,1.548l-0.864,0.45c-0.287-0.576-0.63-0.993-1.025-1.251c-0.396-0.258-0.925-0.387-1.584-0.387
		c-2.292,0-3.438,1.86-3.438,5.58c0,1.956,0.271,3.378,0.811,4.266c0.54,0.888,1.344,1.332,2.412,1.332
		c1.415,0,2.441-0.45,3.077-1.35V6.75h-2.825V5.904h3.744V11.07z"/>
	<path d="M307.471,7.056l2.376,5.652h-1.026l-2.304-5.598h-2.97v5.598h-0.918v-12.6h3.852c0.636,0,1.2,0.078,1.692,0.234
		c0.492,0.156,0.906,0.486,1.242,0.99s0.504,1.236,0.504,2.196C309.919,5.628,309.103,6.804,307.471,7.056z M303.547,6.264h3.474
		c0.636,0,1.125-0.207,1.467-0.621c0.343-0.414,0.514-1.119,0.514-2.115c0-0.936-0.184-1.599-0.549-1.989
		c-0.366-0.39-0.873-0.585-1.521-0.585h-3.384V6.264z"/>
	<path d="M318.89,8.532h-4.644l-0.937,4.176h-0.953l2.825-12.6h2.772l2.826,12.6h-0.954L318.89,8.532z M318.692,7.686l-1.494-6.732
		h-1.261l-1.493,6.732H318.692z"/>
	<path d="M324.563,8.262v4.446h-0.918v-12.6h3.6c0.685,0,1.297,0.078,1.836,0.234c0.54,0.156,1.012,0.528,1.413,1.116
		c0.402,0.588,0.604,1.464,0.604,2.628c0,1.692-0.375,2.811-1.125,3.357c-0.75,0.546-1.659,0.819-2.728,0.819H324.563z
		 M324.563,7.416h2.916c0.504,0,0.945-0.072,1.323-0.216s0.698-0.459,0.963-0.945c0.264-0.486,0.396-1.208,0.396-2.169
		c0-0.936-0.132-1.635-0.396-2.097c-0.265-0.461-0.579-0.75-0.945-0.864c-0.366-0.114-0.812-0.171-1.341-0.171h-2.916V7.416z"/>
	<path d="M340.66,0.108v12.6h-0.918V6.57h-5.058v6.138h-0.918v-12.6h0.918v5.634h5.058V0.108H340.66z"/>
	<path d="M351.808,0.108l-3.744,7.488v5.112h-0.918V7.614l-3.762-7.506h1.025l3.168,6.282h0.054l3.15-6.282H351.808z"/>
</g>
</svg>
