<svg version="1.1" id="Layer_1" xmlns="http://www.w3.org/2000/svg" xmlns:xlink="http://www.w3.org/1999/xlink" x="0px" y="0px"
	 width="129.321px" height="27.598px" viewBox="0 0 129.321 27.598" enable-background="new 0 0 129.321 27.598"
	 xml:space="preserve">
<g>
	<path d="M5.085,18.088v9.083H0V0h8.811c1.526,0,2.917,0.175,4.173,0.524c1.255,0.35,2.354,1.152,3.299,2.407
		C17.228,4.186,17.7,6.069,17.7,8.578c0,3.856-0.88,6.405-2.639,7.647c-1.76,1.242-3.843,1.863-6.25,1.863H5.085z M5.085,13.935
		h3.26c0.957,0,1.728-0.117,2.31-0.35s1.042-0.718,1.378-1.456c0.336-0.737,0.504-1.844,0.504-3.319
		c0-1.345-0.168-2.354-0.504-3.027c-0.336-0.673-0.796-1.112-1.378-1.32c-0.582-0.207-1.353-0.311-2.31-0.311h-3.26V13.935z"/>
	<path d="M38.889,23.018v4.153H22.082V0h5.085v23.018H38.889z"/>
	<path d="M47.762,4.153v7.569h9.626v4.192h-9.626v7.103h11.722v4.153H42.677V0h16.807v4.153H47.762z"/>
	<path d="M81.597,0v27.171h-5.551L68.594,9.743v17.428h-5.084V0h5.55l7.453,17.428V0H81.597z"/>
	<path d="M90.432,26.686c-1.385-0.607-2.473-1.714-3.262-3.318s-1.184-3.855-1.184-6.754V0h5.124v15.72
		c0,2.071,0.175,3.668,0.524,4.794c0.349,1.125,0.84,1.889,1.475,2.29c0.634,0.401,1.43,0.602,2.387,0.602
		c0.983,0,1.785-0.2,2.406-0.602c0.621-0.401,1.1-1.158,1.438-2.271c0.336-1.112,0.504-2.717,0.504-4.813V0h5.123v16.613
		c0,2.898-0.388,5.149-1.164,6.754c-0.775,1.604-1.85,2.711-3.222,3.318c-1.372,0.608-3.066,0.912-5.085,0.912
		C93.504,27.598,91.815,27.293,90.432,26.686z"/>
	<path d="M124.235,27.171l-0.271-20.3l-0.311,2.911l-2.833,14.4h-4.192l-2.834-14.439l-0.31-2.872l-0.272,20.3h-5.084L109.602,0
		h5.783l3.105,14.207l0.232,2.717l0.233-2.717L122.062,0h5.783l1.476,27.171H124.235z"/>
</g>
</svg>
